# Blender v2.93.4 OBJ File: 'enemySpace.blend'
# www.blender.org
mtllib enemySpace.mtl
o Cube
v -1.000000 -0.002982 1.000000
v -0.600000 -0.002982 -1.000000
v 1.000000 -0.002982 1.000000
v 0.600000 -0.002982 -1.000000
v 0.000000 -0.002982 0.500000
v 0.000000 -0.002982 -0.500000
v 0.500000 -0.002982 0.000000
v -0.500000 -0.002982 0.000000
v 0.000000 -0.002982 0.000000
v -0.725176 0.784260 0.725176
v -1.000000 0.661355 1.000000
v -0.725176 0.784260 -0.725176
v -0.600000 0.661355 -1.000000
v 0.725176 0.784260 0.725176
v 1.000000 0.661355 1.000000
v 0.725176 0.784260 -0.725176
v 0.600000 0.661355 -1.000000
v 0.038648 0.670637 -0.339784
v 0.000000 0.381633 -0.327509
v -0.038648 0.670637 -0.339784
v -0.038648 0.670637 0.339784
v 0.000000 0.604202 0.451481
v 0.038648 0.670637 0.339784
v -0.500000 0.438825 0.000000
v -0.339784 0.670637 0.038648
v -0.339784 0.670637 -0.038648
v 0.339784 0.670637 0.038648
v 0.500000 0.438825 0.000000
v 0.339784 0.670637 -0.038648
v 0.122905 0.599447 -0.122905
v -0.122905 0.599447 -0.122905
v -0.122905 0.599447 0.122905
v 0.122905 0.599447 0.122905
v -0.122905 0.599447 -0.424041
v 0.122905 0.599447 -0.424041
v 0.122905 0.599447 0.424041
v -0.122905 0.599447 0.424041
v -0.424041 0.599447 0.122905
v -0.424041 0.599447 -0.122905
v 0.424041 0.599447 -0.122905
v 0.424041 0.599447 0.122905
v 0.038648 0.670637 -0.038648
v -0.038648 0.670637 -0.038648
v 0.038648 0.670637 0.038648
v -0.038648 0.670637 0.038648
vt 0.846021 0.645737
vt 0.851483 0.726483
vt 0.770737 0.721021
vt 0.770737 0.528979
vt 0.851483 0.523517
vt 0.846021 0.604263
vt 0.250000 0.625000
vt 0.375000 0.625000
vt 0.375000 0.750000
vt 0.250000 0.750000
vt 0.653979 0.645737
vt 0.723254 0.651746
vt 0.729263 0.721021
vt 0.729263 0.528979
vt 0.723254 0.598254
vt 0.653979 0.604263
vt 0.375000 0.125000
vt 0.585970 0.125000
vt 0.585970 0.250000
vt 0.375000 0.250000
vt 0.125000 0.625000
vt 0.125000 0.750000
vt 0.585970 0.625000
vt 0.585970 0.750000
vt 0.585970 0.375000
vt 0.375000 0.375000
vt 0.585970 0.875000
vt 0.375000 0.875000
vt 0.125000 0.500000
vt 0.250000 0.500000
vt 0.585970 0.500000
vt 0.375000 0.500000
vt 0.585970 1.000000
vt 0.375000 0.000000
vt 0.585970 0.000000
vt 0.750000 0.750000
vt 0.750000 0.731010
vt 0.750000 0.500000
vt 0.750000 0.518990
vt 0.875000 0.625000
vt 0.856010 0.625000
vt 0.757363 0.633370
vt 0.742637 0.633370
vt 0.742637 0.616630
vt 0.757363 0.616630
vt 0.875000 0.750000
vt 0.648517 0.726483
vt 0.875000 0.500000
vt 0.648517 0.523517
vt 0.625000 0.500000
vt 0.625000 0.750000
vt 0.756968 0.701638
vt 0.743031 0.701638
vt 0.756968 0.548362
vt 0.743032 0.548362
vt 0.673362 0.631968
vt 0.673362 0.618032
vt 0.826638 0.631968
vt 0.826638 0.618032
vt 0.776746 0.651746
vt 0.776746 0.598254
vt 0.375000 1.000000
vn -0.1965 0.9606 0.1965
vn -0.1965 0.9606 -0.1965
vn 0.0000 -1.0000 0.0000
vn 0.0000 1.0000 0.0000
vn 0.8944 0.0000 -0.4472
vn -0.9950 0.0000 0.0995
vn -0.4648 0.0338 0.8848
vn 0.7717 0.2602 -0.5803
vn 0.4648 0.0338 0.8848
vn -0.7717 0.2602 -0.5803
vn 0.9950 0.0000 0.0995
vn 0.0000 -0.4052 -0.9142
vn 0.0000 0.9853 -0.1707
vn -0.9040 0.4275 0.0000
vn 0.9040 0.4275 0.0000
vn -0.3865 0.8946 -0.2240
vn -0.6181 -0.7831 0.0687
vn 0.7190 0.4767 -0.5058
vn 0.5058 0.4767 0.7190
vn 0.7686 0.1591 -0.6196
vn 0.0109 0.9923 -0.1232
vn -0.6207 0.6400 -0.4528
vn 0.8166 0.5407 0.2020
vn -0.8944 0.0000 -0.4472
vn 0.0000 0.7639 0.6454
vn -0.6454 0.7639 0.0000
vn 0.6454 0.7639 0.0000
vn 0.0000 0.7639 -0.6454
vn 0.6181 -0.7831 0.0687
vn -0.7190 0.4767 -0.5058
vn -0.5058 0.4767 0.7190
vn -0.0109 0.9923 -0.1232
vn 0.6207 0.6400 -0.4528
vn -0.8166 0.5407 0.2020
vn 0.1965 0.9606 -0.1965
vn 0.1965 0.9606 0.1965
vn 0.3865 0.8946 -0.2240
vn -0.7686 0.1591 -0.6196
vn -0.6402 0.0000 -0.7682
vn 0.6402 0.0000 -0.7682
usemtl Material
s off
f 40/1/1 16/2/1 35/3/1
f 36/4/2 14/5/2 41/6/2
f 9/7/3 8/8/3 2/9/3 6/10/3
f 39/11/4 31/12/4 34/13/4
f 37/14/4 32/15/4 38/16/4
f 7/17/5 28/18/5 15/19/5 3/20/5
f 7/21/3 9/7/3 6/10/3 4/22/3
f 8/8/6 24/23/6 13/24/6 2/9/6
f 3/20/7 15/19/7 22/25/7 5/26/7
f 13/24/8 19/27/8 6/28/8
f 3/29/3 5/30/3 9/7/3 7/21/3
f 5/26/9 22/25/9 11/31/9 1/32/9
f 5/30/3 1/32/3 8/8/3 9/7/3
f 6/28/10 19/27/10 17/33/10
f 4/34/11 17/35/11 28/18/11 7/17/11
f 35/3/12 19/36/12 34/37/12
f 37/14/13 22/38/13 36/39/13
f 24/23/14 38/16/14 39/11/14
f 41/6/15 28/40/15 40/41/15
f 42/42/4 43/43/4 45/44/4 44/45/4
f 35/3/16 16/2/16 17/46/16
f 39/11/17 12/47/17 13/24/17
f 41/6/18 14/5/18 15/48/18
f 37/14/19 10/49/19 11/50/19
f 34/13/20 19/36/20 13/51/20
f 36/4/21 22/38/21 15/48/21
f 42/42/4 18/52/4 20/53/4 43/43/4
f 38/16/22 24/23/22 11/31/22
f 40/1/23 28/40/23 17/46/23
f 23/54/4 44/45/4 45/44/4 21/55/4
f 43/43/4 26/56/4 25/57/4 45/44/4
f 29/58/4 42/42/4 44/45/4 27/59/4
f 1/32/24 11/31/24 24/23/24 8/8/24
f 23/54/25 21/55/25 37/14/25 36/4/25
f 25/57/26 26/56/26 39/11/26 38/16/26
f 29/58/27 27/59/27 41/6/27 40/1/27
f 18/52/27 42/42/27 30/60/27 35/3/27
f 43/43/26 20/53/26 34/13/26 31/12/26
f 44/45/27 23/54/27 36/4/27 33/61/27
f 21/55/26 45/44/26 32/15/26 37/14/26
f 26/56/28 43/43/28 31/12/28 39/11/28
f 45/44/25 25/57/25 38/16/25 32/15/25
f 42/42/28 29/58/28 40/1/28 30/60/28
f 27/59/25 44/45/25 33/61/25 41/6/25
f 35/3/28 34/13/28 20/53/28 18/52/28
f 16/2/29 40/1/29 17/46/29
f 10/49/30 38/16/30 11/31/30
f 14/5/31 36/4/31 15/48/31
f 22/38/32 37/14/32 11/50/32
f 28/40/33 41/6/33 15/48/33
f 24/23/34 39/11/34 13/24/34
f 10/49/35 37/14/35 38/16/35
f 12/47/36 39/11/36 34/13/36
f 33/61/4 36/4/4 41/6/4
f 30/60/4 40/1/4 35/3/4
f 12/47/37 34/13/37 13/51/37
f 19/36/38 35/3/38 17/46/38
f 4/62/39 6/28/39 17/33/39
f 2/9/40 13/24/40 6/28/40
